<?xml version="1.0" encoding="utf-8"?>
<!-- Generator: Adobe Illustrator 24.1.3, SVG Export Plug-In . SVG Version: 6.00 Build 0)  -->
<svg version="1.1" id="_x33_0" xmlns="http://www.w3.org/2000/svg" xmlns:xlink="http://www.w3.org/1999/xlink" x="0px" y="0px"
	 viewBox="0 0 512 512" style="enable-background:new 0 0 512 512;" xml:space="preserve">
<g>
	<circle cx="232" cy="152" r="8"/>
	<circle cx="280" cy="152" r="8"/>
	<path d="M239.2,172.4l-14.3,7.2l0.8,1.7c5.8,11.6,17.4,18.7,30.3,18.7c12.9,0,24.5-7.2,30.3-18.7l0.8-1.7l-14.3-7.2l-0.8,1.7
		c-3,6.1-9.2,9.9-16,9.9s-13-3.8-16-9.9L239.2,172.4z"/>
	<path d="M40,384h48v-64H40V384z M56,336h16v32H56V336z"/>
	<path d="M8,320h16v64H8V320z"/>
	<path d="M56,240H8v64h48V240z M40,288H24v-32h16V288z"/>
	<path d="M72,240h16v64H72V240z"/>
	<path d="M504,168c0-70.6-57.4-128-128-128c-14.7,0-29,2.6-42.6,7.4C315.9,23.6,287.8,8,256,8c-38.6,0-72,23-87.2,56H24
		c-8.8,0-16,7.2-16,16v96c0,8.8,7.2,16,16,16h52l18.4,24.5c3.5,4.7,9.1,7.5,14.9,7.5c10.3,0,18.7-8.4,18.7-18.7V192h32.2
		c0.8,15.2,4.2,29.8,10,43.4c-6.5,2.2-12.6,5.3-18.2,9.1V240h-48v64h12.6l-11.1,55.6c-1,5.1-1.5,10.3-1.5,15.4
		c0,28.2,15.2,54.3,39.6,68.3l10,5.7l3.8,28.5c2,15.1,15,26.5,30.2,26.5h136.6c15.2,0,28.2-11.4,30.2-26.5l3.8-28.5l10-5.7
		c24.5-14,39.6-40.1,39.6-68.3c0-5.2-0.5-10.4-1.5-15.4l-13-64.9C456.2,286.1,504,232.3,504,168L504,168z M352.7,240h47.9
		c-5.7,12.1-12,21.6-17.4,28.5C375.7,256.4,365.3,246.6,352.7,240z M400.4,96h-48.8c8.5-18.3,18.5-30.5,24.4-36.8
		C381.9,65.5,391.9,77.8,400.4,96z M487.6,160h-55.9c-0.7-18.1-3.6-34.1-7.9-48h49C481.2,126.3,486.4,142.6,487.6,160z M415.7,160
		H352v-48h54.9C411.5,125.6,414.9,141.6,415.7,160z M346,224c3.9-12.4,6-25.4,6-38.8V176h63.8c-0.8,18.4-4.2,34.4-8.8,48H346z
		 M431.8,176h55.8c-1.2,17.4-6.5,33.7-14.8,48h-49.1C428,210.1,431.1,194.1,431.8,176z M461.7,96H418c-6.9-16.5-15.1-29.2-22.1-38.1
		C422.1,62.6,445.2,76.4,461.7,96z M356.2,57.8c-3.1,4-6.4,8.7-9.8,14.2c-1.3-3.6-2.8-7.2-4.5-10.6
		C346.6,59.9,351.4,58.7,356.2,57.8z M176,104c0-44.1,35.9-80,80-80s80,35.9,80,80v81.2c0,40.6-21.9,77.8-56.5,97.9
		c-0.9-4.4-3-8.3-6-11.4c28.6-18.2,46.5-49.9,46.5-84.6V120c0-35.3-28.7-64-64-64s-64,28.7-64,64v67.1c0,34.7,17.8,66.4,46.5,84.6
		c-2.9,3.2-5.1,7-6,11.4C197.9,263,176,225.8,176,185.2L176,104z M304,123c-9.5-8.3-20.9-14.3-33.3-17.5C267.4,95.4,258,88,246.9,88
		c-12.6,0-22.9,10.3-22.9,22.9v1.1h16v-1.1c0-3.8,3.1-6.9,6.9-6.9c5,0,9.1,4.1,9.1,9.1c0,4.4-3.3,8.2-7.7,8.8l-40.3,5V120
		c0-26.5,21.5-48,48-48s48,21.5,48,48V123z M208,143.1l42.2-5.3c9.3-1.2,16.9-7.4,20.1-15.7c13.6,4.4,25.3,12.9,33.7,24.6V168
		c0,26.5-21.5,48-48,48s-48-21.5-48-48V143.1z M291.3,231.6l-1.8-9.1c3.4-2.1,6.6-4.5,9.5-7.1C296.9,221,294.4,226.5,291.3,231.6z
		 M222.6,222.5l-1.8,9.1c-3.2-5.1-5.6-10.6-7.7-16.3C216,218,219.2,220.4,222.6,222.5L222.6,222.5z M237.5,229.2
		c5.9,1.8,12.1,2.8,18.5,2.8s12.6-1,18.5-2.8l3.7,18.4c-6.4,6.2-13.8,11.6-22.2,15.6c-8.4-4-15.7-9.4-22.2-15.6L237.5,229.2z
		 M248,288c0-4,3-7.2,6.9-7.8l1.1,0.5l1.1-0.5c3.9,0.6,6.9,3.8,6.9,7.8v16c0,4.4-3.6,8-8,8s-8-3.6-8-8V288z M112,176v29.3
		c0,2.3-3.4,3.4-4.8,1.6L84,176H24V80h139.2c-2,7.7-3.2,15.7-3.2,24v4.7l-18.3-18.3l-11.3,11.3l26.3,26.3l-26.3,26.3l11.3,11.3
		l18.3-18.3V176H112z M120,256h16v2.7c-7.2,8.4-12.5,18.3-15.7,29.3H120V256z M174.5,360h163c8,0,14.5,6.5,14.5,14.5
		c0,0.6,0,1.3-0.1,1.9L341.3,456H170.7l-10.6-79.6c-0.1-0.6-0.1-1.3-0.1-1.9C160,366.5,166.5,360,174.5,360L174.5,360z M324.3,488
		H187.7c-7.2,0-13.4-5.4-14.4-12.6l-0.5-3.4h166.3l-0.5,3.4C337.7,482.6,331.5,488,324.3,488z M361,429l6.7-50.5
		c0.2-1.3,0.3-2.7,0.3-4c0-14.6-10.3-26.8-24-29.8v-22.8l7.2-14.3l-14.3-7.2l-8.8,17.7V344H184v-25.9l-8.8-17.7l-14.3,7.2l7.2,14.3
		v22.8c-13.7,3-24,15.2-24,29.8c0,1.3,0.1,2.7,0.3,4L151,429c-19.1-11.2-31-31.8-31-54c0-4.1,0.4-8.2,1.2-12.3l13.1-65.4
		c4.6-22.8,21.2-40.7,43.2-47.4c12.6,21.7,31.3,39.6,54.5,51.1v3c0,13.2,10.8,24,24,24s24-10.8,24-24v-3
		c23.2-11.5,42-29.4,54.5-51.1c21.9,6.6,38.6,24.6,43.2,47.4l13.1,65.4c0.8,4,1.2,8.2,1.2,12.3C392,397.2,380.1,417.8,361,429
		L361,429z M395.8,278.2c7-8.9,15.3-21.6,22.2-38.2h43.6C445.1,259.6,422.2,273.5,395.8,278.2z"/>
	<path d="M66.3,90.3L28.7,128l37.7,37.7l11.3-11.3L51.3,128l26.3-26.3L66.3,90.3z"/>
	<path d="M88.2,158l16-64l15.5,3.9l-16,64L88.2,158z"/>
</g>
</svg>
